<svg width="120" height="24" viewBox="0 0 120 24" fill="none" xmlns="http://www.w3.org/2000/svg">
<path fill-rule="evenodd" clip-rule="evenodd" d="M10.788 3.21C11.236 2.133 12.764 2.133 13.212 3.21L15.294 8.217L20.698 8.65C21.862 8.743 22.334 10.195 21.447 10.955L17.33 14.482L18.587 19.755C18.858 20.891 17.623 21.788 16.627 21.18L12 18.354L7.373 21.18C6.377 21.788 5.142 20.89 5.413 19.755L6.67 14.482L2.553 10.955C1.666 10.195 2.138 8.743 3.302 8.65L8.706 8.217L10.788 3.21Z" fill="#F6921E"/>
<path fill-rule="evenodd" clip-rule="evenodd" d="M34.788 3.21C35.236 2.133 36.764 2.133 37.212 3.21L39.294 8.217L44.698 8.65C45.862 8.743 46.334 10.195 45.447 10.955L41.33 14.482L42.587 19.755C42.858 20.891 41.623 21.788 40.627 21.18L36 18.354L31.373 21.18C30.377 21.788 29.142 20.89 29.413 19.755L30.67 14.482L26.553 10.955C25.666 10.195 26.138 8.743 27.302 8.65L32.706 8.217L34.788 3.21Z" fill="#F6921E"/>
<path fill-rule="evenodd" clip-rule="evenodd" d="M58.788 3.21C59.236 2.133 60.764 2.133 61.212 3.21L63.294 8.217L68.698 8.65C69.862 8.743 70.334 10.195 69.447 10.955L65.33 14.482L66.587 19.755C66.858 20.891 65.623 21.788 64.627 21.18L60 18.354L55.373 21.18C54.377 21.788 53.142 20.89 53.413 19.755L54.67 14.482L50.553 10.955C49.666 10.195 50.138 8.743 51.302 8.65L56.706 8.217L58.788 3.21Z" fill="#F6921E"/>
<path fill-rule="evenodd" clip-rule="evenodd" d="M82.788 3.21C83.236 2.133 84.764 2.133 85.212 3.21L87.294 8.217L92.698 8.65C93.862 8.743 94.334 10.195 93.447 10.955L89.33 14.482L90.587 19.755C90.858 20.891 89.623 21.788 88.627 21.18L84 18.354L79.373 21.18C78.377 21.788 77.142 20.89 77.413 19.755L78.67 14.482L74.553 10.955C73.666 10.195 74.138 8.743 75.302 8.65L80.706 8.217L82.788 3.21Z" fill="#F6921E"/>
<path fill-rule="evenodd" clip-rule="evenodd" d="M106.788 3.21C107.236 2.133 108.764 2.133 109.212 3.21L111.294 8.217L116.698 8.65C117.862 8.743 118.334 10.195 117.447 10.955L113.33 14.482L114.587 19.755C114.858 20.891 113.623 21.788 112.627 21.18L108 18.354L103.373 21.18C102.377 21.788 101.142 20.89 101.413 19.755L102.67 14.482L98.553 10.955C97.666 10.195 98.138 8.743 99.302 8.65L104.706 8.217L106.788 3.21Z" fill="#F6921E"/>
</svg>
